<?xml version="1.0" encoding="utf-8" standalone="no"?>
<!DOCTYPE svg PUBLIC "-//W3C//DTD SVG 1.1//EN"
  "http://www.w3.org/Graphics/SVG/1.1/DTD/svg11.dtd">
<svg xmlns:xlink="http://www.w3.org/1999/xlink" width="360pt" height="288pt" viewBox="0 0 360 288" xmlns="http://www.w3.org/2000/svg" version="1.1">
 <metadata>
  <rdf:RDF xmlns:dc="http://purl.org/dc/elements/1.1/" xmlns:cc="http://creativecommons.org/ns#" xmlns:rdf="http://www.w3.org/1999/02/22-rdf-syntax-ns#">
   <cc:Work>
    <dc:type rdf:resource="http://purl.org/dc/dcmitype/StillImage"/>
    <dc:date>2024-05-28T16:18:19.533212</dc:date>
    <dc:format>image/svg+xml</dc:format>
    <dc:creator>
     <cc:Agent>
      <dc:title>Matplotlib v3.7.0, https://matplotlib.org/</dc:title>
     </cc:Agent>
    </dc:creator>
   </cc:Work>
  </rdf:RDF>
 </metadata>
 <defs>
  <style type="text/css">*{stroke-linejoin: round; stroke-linecap: butt}</style>
 </defs>
 <g id="figure_1">
  <g id="patch_1">
   <path d="M 0 288 
L 360 288 
L 360 0 
L 0 0 
z
" style="fill: #ffffff"/>
  </g>
  <g id="axes_1">
   <g id="patch_2">
    <path d="M 54.325865 239.15851 
L 356.99976 239.15851 
L 356.99976 3.00024 
L 54.325865 3.00024 
z
" style="fill: #ffffff"/>
   </g>
   <g id="PathCollection_1">
    <defs>
     <path id="m787f9af0f5" d="M 0 5 
C 1.326016 5 2.597899 4.473168 3.535534 3.535534 
C 4.473168 2.597899 5 1.326016 5 0 
C 5 -1.326016 4.473168 -2.597899 3.535534 -3.535534 
C 2.597899 -4.473168 1.326016 -5 0 -5 
C -1.326016 -5 -2.597899 -4.473168 -3.535534 -3.535534 
C -4.473168 -2.597899 -5 -1.326016 -5 0 
C -5 1.326016 -4.473168 2.597899 -3.535534 3.535534 
C -2.597899 4.473168 -1.326016 5 0 5 
z
" style="stroke: #ff0000; stroke-opacity: 0.8"/>
    </defs>
    <g clip-path="url(#p1e2d0a3418)">
     <use xlink:href="#m787f9af0f5" x="185.500585" y="16.675657" style="fill: #ff0000; fill-opacity: 0.8; stroke: #ff0000; stroke-opacity: 0.8"/>
     <use xlink:href="#m787f9af0f5" x="229.783089" y="60.789904" style="fill: #ff0000; fill-opacity: 0.8; stroke: #ff0000; stroke-opacity: 0.8"/>
     <use xlink:href="#m787f9af0f5" x="180.729866" y="16.675657" style="fill: #ff0000; fill-opacity: 0.8; stroke: #ff0000; stroke-opacity: 0.8"/>
     <use xlink:href="#m787f9af0f5" x="164.632377" y="16.675657" style="fill: #ff0000; fill-opacity: 0.8; stroke: #ff0000; stroke-opacity: 0.8"/>
     <use xlink:href="#m787f9af0f5" x="243.66004" y="16.675657" style="fill: #ff0000; fill-opacity: 0.8; stroke: #ff0000; stroke-opacity: 0.8"/>
     <use xlink:href="#m787f9af0f5" x="161.256346" y="16.675657" style="fill: #ff0000; fill-opacity: 0.8; stroke: #ff0000; stroke-opacity: 0.8"/>
     <use xlink:href="#m787f9af0f5" x="191.734365" y="134.313649" style="fill: #ff0000; fill-opacity: 0.8; stroke: #ff0000; stroke-opacity: 0.8"/>
     <use xlink:href="#m787f9af0f5" x="339.182367" y="75.494653" style="fill: #ff0000; fill-opacity: 0.8; stroke: #ff0000; stroke-opacity: 0.8"/>
     <use xlink:href="#m787f9af0f5" x="215.86225" y="157.841248" style="fill: #ff0000; fill-opacity: 0.8; stroke: #ff0000; stroke-opacity: 0.8"/>
     <use xlink:href="#m787f9af0f5" x="170.703104" y="149.018398" style="fill: #ff0000; fill-opacity: 0.8; stroke: #ff0000; stroke-opacity: 0.8"/>
     <use xlink:href="#m787f9af0f5" x="343.241856" y="219.601194" style="fill: #ff0000; fill-opacity: 0.8; stroke: #ff0000; stroke-opacity: 0.8"/>
     <use xlink:href="#m787f9af0f5" x="287.396382" y="16.675657" style="fill: #ff0000; fill-opacity: 0.8; stroke: #ff0000; stroke-opacity: 0.8"/>
     <use xlink:href="#m787f9af0f5" x="157.818149" y="22.557556" style="fill: #ff0000; fill-opacity: 0.8; stroke: #ff0000; stroke-opacity: 0.8"/>
     <use xlink:href="#m787f9af0f5" x="138.695135" y="22.557556" style="fill: #ff0000; fill-opacity: 0.8; stroke: #ff0000; stroke-opacity: 0.8"/>
     <use xlink:href="#m787f9af0f5" x="140.798506" y="228.424043" style="fill: #ff0000; fill-opacity: 0.8; stroke: #ff0000; stroke-opacity: 0.8"/>
     <use xlink:href="#m787f9af0f5" x="130.428743" y="13.734707" style="fill: #ff0000; fill-opacity: 0.8; stroke: #ff0000; stroke-opacity: 0.8"/>
     <use xlink:href="#m787f9af0f5" x="136.536913" y="25.498506" style="fill: #ff0000; fill-opacity: 0.8; stroke: #ff0000; stroke-opacity: 0.8"/>
     <use xlink:href="#m787f9af0f5" x="170.968686" y="13.734707" style="fill: #ff0000; fill-opacity: 0.8; stroke: #ff0000; stroke-opacity: 0.8"/>
     <use xlink:href="#m787f9af0f5" x="179.825077" y="13.734707" style="fill: #ff0000; fill-opacity: 0.8; stroke: #ff0000; stroke-opacity: 0.8"/>
     <use xlink:href="#m787f9af0f5" x="128.390078" y="13.734707" style="fill: #ff0000; fill-opacity: 0.8; stroke: #ff0000; stroke-opacity: 0.8"/>
     <use xlink:href="#m787f9af0f5" x="148.330416" y="25.498506" style="fill: #ff0000; fill-opacity: 0.8; stroke: #ff0000; stroke-opacity: 0.8"/>
     <use xlink:href="#m787f9af0f5" x="117.655823" y="34.321356" style="fill: #ff0000; fill-opacity: 0.8; stroke: #ff0000; stroke-opacity: 0.8"/>
     <use xlink:href="#m787f9af0f5" x="146.301677" y="13.734707" style="fill: #ff0000; fill-opacity: 0.8; stroke: #ff0000; stroke-opacity: 0.8"/>
     <use xlink:href="#m787f9af0f5" x="131.60613" y="13.734707" style="fill: #ff0000; fill-opacity: 0.8; stroke: #ff0000; stroke-opacity: 0.8"/>
     <use xlink:href="#m787f9af0f5" x="83.805271" y="222.542144" style="fill: #ff0000; fill-opacity: 0.8; stroke: #ff0000; stroke-opacity: 0.8"/>
     <use xlink:href="#m787f9af0f5" x="185.206699" y="51.967054" style="fill: #ff0000; fill-opacity: 0.8; stroke: #ff0000; stroke-opacity: 0.8"/>
     <use xlink:href="#m787f9af0f5" x="119.022375" y="96.081302" style="fill: #ff0000; fill-opacity: 0.8; stroke: #ff0000; stroke-opacity: 0.8"/>
     <use xlink:href="#m787f9af0f5" x="120.388165" y="66.671803" style="fill: #ff0000; fill-opacity: 0.8; stroke: #ff0000; stroke-opacity: 0.8"/>
     <use xlink:href="#m787f9af0f5" x="142.170886" y="16.675657" style="fill: #ff0000; fill-opacity: 0.8; stroke: #ff0000; stroke-opacity: 0.8"/>
     <use xlink:href="#m787f9af0f5" x="188.986963" y="160.782197" style="fill: #ff0000; fill-opacity: 0.8; stroke: #ff0000; stroke-opacity: 0.8"/>
     <use xlink:href="#m787f9af0f5" x="157.36191" y="16.675657" style="fill: #ff0000; fill-opacity: 0.8; stroke: #ff0000; stroke-opacity: 0.8"/>
     <use xlink:href="#m787f9af0f5" x="160.84319" y="110.786051" style="fill: #ff0000; fill-opacity: 0.8; stroke: #ff0000; stroke-opacity: 0.8"/>
     <use xlink:href="#m787f9af0f5" x="107.131168" y="16.675657" style="fill: #ff0000; fill-opacity: 0.8; stroke: #ff0000; stroke-opacity: 0.8"/>
     <use xlink:href="#m787f9af0f5" x="176.352712" y="16.675657" style="fill: #ff0000; fill-opacity: 0.8; stroke: #ff0000; stroke-opacity: 0.8"/>
     <use xlink:href="#m787f9af0f5" x="160.782944" y="16.675657" style="fill: #ff0000; fill-opacity: 0.8; stroke: #ff0000; stroke-opacity: 0.8"/>
     <use xlink:href="#m787f9af0f5" x="155.926032" y="16.675657" style="fill: #ff0000; fill-opacity: 0.8; stroke: #ff0000; stroke-opacity: 0.8"/>
     <use xlink:href="#m787f9af0f5" x="166.531817" y="16.675657" style="fill: #ff0000; fill-opacity: 0.8; stroke: #ff0000; stroke-opacity: 0.8"/>
     <use xlink:href="#m787f9af0f5" x="180.166089" y="16.675657" style="fill: #ff0000; fill-opacity: 0.8; stroke: #ff0000; stroke-opacity: 0.8"/>
     <use xlink:href="#m787f9af0f5" x="139.640815" y="16.675657" style="fill: #ff0000; fill-opacity: 0.8; stroke: #ff0000; stroke-opacity: 0.8"/>
     <use xlink:href="#m787f9af0f5" x="152.621552" y="16.675657" style="fill: #ff0000; fill-opacity: 0.8; stroke: #ff0000; stroke-opacity: 0.8"/>
     <use xlink:href="#m787f9af0f5" x="164.010956" y="69.612753" style="fill: #ff0000; fill-opacity: 0.8; stroke: #ff0000; stroke-opacity: 0.8"/>
     <use xlink:href="#m787f9af0f5" x="199.649779" y="16.675657" style="fill: #ff0000; fill-opacity: 0.8; stroke: #ff0000; stroke-opacity: 0.8"/>
     <use xlink:href="#m787f9af0f5" x="134.958175" y="16.675657" style="fill: #ff0000; fill-opacity: 0.8; stroke: #ff0000; stroke-opacity: 0.8"/>
     <use xlink:href="#m787f9af0f5" x="181.742618" y="213.719294" style="fill: #ff0000; fill-opacity: 0.8; stroke: #ff0000; stroke-opacity: 0.8"/>
     <use xlink:href="#m787f9af0f5" x="152.653104" y="16.675657" style="fill: #ff0000; fill-opacity: 0.8; stroke: #ff0000; stroke-opacity: 0.8"/>
     <use xlink:href="#m787f9af0f5" x="215.473406" y="16.675657" style="fill: #ff0000; fill-opacity: 0.8; stroke: #ff0000; stroke-opacity: 0.8"/>
     <use xlink:href="#m787f9af0f5" x="158.079432" y="178.427896" style="fill: #ff0000; fill-opacity: 0.8; stroke: #ff0000; stroke-opacity: 0.8"/>
     <use xlink:href="#m787f9af0f5" x="170.780137" y="16.675657" style="fill: #ff0000; fill-opacity: 0.8; stroke: #ff0000; stroke-opacity: 0.8"/>
     <use xlink:href="#m787f9af0f5" x="135.730251" y="16.675657" style="fill: #ff0000; fill-opacity: 0.8; stroke: #ff0000; stroke-opacity: 0.8"/>
     <use xlink:href="#m787f9af0f5" x="159.457846" y="178.427896" style="fill: #ff0000; fill-opacity: 0.8; stroke: #ff0000; stroke-opacity: 0.8"/>
     <use xlink:href="#m787f9af0f5" x="155.005168" y="84.317502" style="fill: #ff0000; fill-opacity: 0.8; stroke: #ff0000; stroke-opacity: 0.8"/>
     <use xlink:href="#m787f9af0f5" x="180.925919" y="16.675657" style="fill: #ff0000; fill-opacity: 0.8; stroke: #ff0000; stroke-opacity: 0.8"/>
     <use xlink:href="#m787f9af0f5" x="202.878085" y="13.734707" style="fill: #ff0000; fill-opacity: 0.8; stroke: #ff0000; stroke-opacity: 0.8"/>
     <use xlink:href="#m787f9af0f5" x="169.708285" y="87.258452" style="fill: #ff0000; fill-opacity: 0.8; stroke: #ff0000; stroke-opacity: 0.8"/>
     <use xlink:href="#m787f9af0f5" x="208.19813" y="13.734707" style="fill: #ff0000; fill-opacity: 0.8; stroke: #ff0000; stroke-opacity: 0.8"/>
     <use xlink:href="#m787f9af0f5" x="167.719896" y="13.734707" style="fill: #ff0000; fill-opacity: 0.8; stroke: #ff0000; stroke-opacity: 0.8"/>
     <use xlink:href="#m787f9af0f5" x="130.90057" y="13.734707" style="fill: #ff0000; fill-opacity: 0.8; stroke: #ff0000; stroke-opacity: 0.8"/>
     <use xlink:href="#m787f9af0f5" x="134.041888" y="13.734707" style="fill: #ff0000; fill-opacity: 0.8; stroke: #ff0000; stroke-opacity: 0.8"/>
     <use xlink:href="#m787f9af0f5" x="127.146028" y="13.734707" style="fill: #ff0000; fill-opacity: 0.8; stroke: #ff0000; stroke-opacity: 0.8"/>
     <use xlink:href="#m787f9af0f5" x="149.093364" y="131.372699" style="fill: #ff0000; fill-opacity: 0.8; stroke: #ff0000; stroke-opacity: 0.8"/>
     <use xlink:href="#m787f9af0f5" x="125.817742" y="13.734707" style="fill: #ff0000; fill-opacity: 0.8; stroke: #ff0000; stroke-opacity: 0.8"/>
     <use xlink:href="#m787f9af0f5" x="133.222524" y="157.841248" style="fill: #ff0000; fill-opacity: 0.8; stroke: #ff0000; stroke-opacity: 0.8"/>
     <use xlink:href="#m787f9af0f5" x="206.040791" y="13.734707" style="fill: #ff0000; fill-opacity: 0.8; stroke: #ff0000; stroke-opacity: 0.8"/>
     <use xlink:href="#m787f9af0f5" x="178.074599" y="13.734707" style="fill: #ff0000; fill-opacity: 0.8; stroke: #ff0000; stroke-opacity: 0.8"/>
     <use xlink:href="#m787f9af0f5" x="211.92546" y="13.734707" style="fill: #ff0000; fill-opacity: 0.8; stroke: #ff0000; stroke-opacity: 0.8"/>
     <use xlink:href="#m787f9af0f5" x="174.513162" y="13.734707" style="fill: #ff0000; fill-opacity: 0.8; stroke: #ff0000; stroke-opacity: 0.8"/>
     <use xlink:href="#m787f9af0f5" x="155.052976" y="31.380406" style="fill: #ff0000; fill-opacity: 0.8; stroke: #ff0000; stroke-opacity: 0.8"/>
     <use xlink:href="#m787f9af0f5" x="112.252935" y="140.195549" style="fill: #ff0000; fill-opacity: 0.8; stroke: #ff0000; stroke-opacity: 0.8"/>
     <use xlink:href="#m787f9af0f5" x="155.676308" y="16.675657" style="fill: #ff0000; fill-opacity: 0.8; stroke: #ff0000; stroke-opacity: 0.8"/>
     <use xlink:href="#m787f9af0f5" x="196.273411" y="13.734707" style="fill: #ff0000; fill-opacity: 0.8; stroke: #ff0000; stroke-opacity: 0.8"/>
     <use xlink:href="#m787f9af0f5" x="154.822935" y="13.734707" style="fill: #ff0000; fill-opacity: 0.8; stroke: #ff0000; stroke-opacity: 0.8"/>
    </g>
   </g>
   <g id="PathCollection_2">
    <defs>
     <path id="m8cdff401a6" d="M 0 5 
C 1.326016 5 2.597899 4.473168 3.535534 3.535534 
C 4.473168 2.597899 5 1.326016 5 0 
C 5 -1.326016 4.473168 -2.597899 3.535534 -3.535534 
C 2.597899 -4.473168 1.326016 -5 0 -5 
C -1.326016 -5 -2.597899 -4.473168 -3.535534 -3.535534 
C -4.473168 -2.597899 -5 -1.326016 -5 0 
C -5 1.326016 -4.473168 2.597899 -3.535534 3.535534 
C -2.597899 4.473168 -1.326016 5 0 5 
z
" style="stroke: #006400; stroke-opacity: 0.8"/>
    </defs>
    <g clip-path="url(#p1e2d0a3418)">
     <use xlink:href="#m8cdff401a6" x="203.227875" y="16.675657" style="fill: #006400; fill-opacity: 0.8; stroke: #006400; stroke-opacity: 0.8"/>
     <use xlink:href="#m8cdff401a6" x="215.148628" y="116.66795" style="fill: #006400; fill-opacity: 0.8; stroke: #006400; stroke-opacity: 0.8"/>
     <use xlink:href="#m8cdff401a6" x="309.189693" y="46.085155" style="fill: #006400; fill-opacity: 0.8; stroke: #006400; stroke-opacity: 0.8"/>
     <use xlink:href="#m8cdff401a6" x="160.975163" y="16.675657" style="fill: #006400; fill-opacity: 0.8; stroke: #006400; stroke-opacity: 0.8"/>
     <use xlink:href="#m8cdff401a6" x="238.376537" y="28.439456" style="fill: #006400; fill-opacity: 0.8; stroke: #006400; stroke-opacity: 0.8"/>
     <use xlink:href="#m8cdff401a6" x="189.339365" y="13.734707" style="fill: #006400; fill-opacity: 0.8; stroke: #006400; stroke-opacity: 0.8"/>
     <use xlink:href="#m8cdff401a6" x="176.18578" y="13.734707" style="fill: #006400; fill-opacity: 0.8; stroke: #006400; stroke-opacity: 0.8"/>
     <use xlink:href="#m8cdff401a6" x="196.527631" y="13.734707" style="fill: #006400; fill-opacity: 0.8; stroke: #006400; stroke-opacity: 0.8"/>
     <use xlink:href="#m8cdff401a6" x="118.78637" y="22.557556" style="fill: #006400; fill-opacity: 0.8; stroke: #006400; stroke-opacity: 0.8"/>
     <use xlink:href="#m8cdff401a6" x="188.076351" y="13.734707" style="fill: #006400; fill-opacity: 0.8; stroke: #006400; stroke-opacity: 0.8"/>
     <use xlink:href="#m8cdff401a6" x="198.370753" y="16.675657" style="fill: #006400; fill-opacity: 0.8; stroke: #006400; stroke-opacity: 0.8"/>
     <use xlink:href="#m8cdff401a6" x="187.767199" y="101.963201" style="fill: #006400; fill-opacity: 0.8; stroke: #006400; stroke-opacity: 0.8"/>
     <use xlink:href="#m8cdff401a6" x="187.483769" y="149.018398" style="fill: #006400; fill-opacity: 0.8; stroke: #006400; stroke-opacity: 0.8"/>
     <use xlink:href="#m8cdff401a6" x="188.932309" y="101.963201" style="fill: #006400; fill-opacity: 0.8; stroke: #006400; stroke-opacity: 0.8"/>
     <use xlink:href="#m8cdff401a6" x="201.587255" y="16.675657" style="fill: #006400; fill-opacity: 0.8; stroke: #006400; stroke-opacity: 0.8"/>
     <use xlink:href="#m8cdff401a6" x="172.633944" y="125.4908" style="fill: #006400; fill-opacity: 0.8; stroke: #006400; stroke-opacity: 0.8"/>
     <use xlink:href="#m8cdff401a6" x="163.1983" y="125.4908" style="fill: #006400; fill-opacity: 0.8; stroke: #006400; stroke-opacity: 0.8"/>
     <use xlink:href="#m8cdff401a6" x="174.176937" y="125.4908" style="fill: #006400; fill-opacity: 0.8; stroke: #006400; stroke-opacity: 0.8"/>
     <use xlink:href="#m8cdff401a6" x="164.176055" y="16.675657" style="fill: #006400; fill-opacity: 0.8; stroke: #006400; stroke-opacity: 0.8"/>
     <use xlink:href="#m8cdff401a6" x="173.890512" y="16.675657" style="fill: #006400; fill-opacity: 0.8; stroke: #006400; stroke-opacity: 0.8"/>
     <use xlink:href="#m8cdff401a6" x="142.715566" y="16.675657" style="fill: #006400; fill-opacity: 0.8; stroke: #006400; stroke-opacity: 0.8"/>
     <use xlink:href="#m8cdff401a6" x="166.17018" y="16.675657" style="fill: #006400; fill-opacity: 0.8; stroke: #006400; stroke-opacity: 0.8"/>
     <use xlink:href="#m8cdff401a6" x="142.565369" y="16.675657" style="fill: #006400; fill-opacity: 0.8; stroke: #006400; stroke-opacity: 0.8"/>
     <use xlink:href="#m8cdff401a6" x="146.088814" y="204.896445" style="fill: #006400; fill-opacity: 0.8; stroke: #006400; stroke-opacity: 0.8"/>
     <use xlink:href="#m8cdff401a6" x="156.575256" y="46.085155" style="fill: #006400; fill-opacity: 0.8; stroke: #006400; stroke-opacity: 0.8"/>
     <use xlink:href="#m8cdff401a6" x="130.152346" y="46.085155" style="fill: #006400; fill-opacity: 0.8; stroke: #006400; stroke-opacity: 0.8"/>
     <use xlink:href="#m8cdff401a6" x="166.358079" y="16.675657" style="fill: #006400; fill-opacity: 0.8; stroke: #006400; stroke-opacity: 0.8"/>
     <use xlink:href="#m8cdff401a6" x="178.04023" y="16.675657" style="fill: #006400; fill-opacity: 0.8; stroke: #006400; stroke-opacity: 0.8"/>
     <use xlink:href="#m8cdff401a6" x="113.440342" y="16.675657" style="fill: #006400; fill-opacity: 0.8; stroke: #006400; stroke-opacity: 0.8"/>
     <use xlink:href="#m8cdff401a6" x="187.751859" y="16.675657" style="fill: #006400; fill-opacity: 0.8; stroke: #006400; stroke-opacity: 0.8"/>
     <use xlink:href="#m8cdff401a6" x="129.471009" y="166.664097" style="fill: #006400; fill-opacity: 0.8; stroke: #006400; stroke-opacity: 0.8"/>
     <use xlink:href="#m8cdff401a6" x="122.51856" y="222.542144" style="fill: #006400; fill-opacity: 0.8; stroke: #006400; stroke-opacity: 0.8"/>
     <use xlink:href="#m8cdff401a6" x="68.083769" y="222.542144" style="fill: #006400; fill-opacity: 0.8; stroke: #006400; stroke-opacity: 0.8"/>
     <use xlink:href="#m8cdff401a6" x="187.89244" y="19.616606" style="fill: #006400; fill-opacity: 0.8; stroke: #006400; stroke-opacity: 0.8"/>
     <use xlink:href="#m8cdff401a6" x="158.661642" y="16.675657" style="fill: #006400; fill-opacity: 0.8; stroke: #006400; stroke-opacity: 0.8"/>
     <use xlink:href="#m8cdff401a6" x="223.034038" y="16.675657" style="fill: #006400; fill-opacity: 0.8; stroke: #006400; stroke-opacity: 0.8"/>
     <use xlink:href="#m8cdff401a6" x="154.768342" y="207.837394" style="fill: #006400; fill-opacity: 0.8; stroke: #006400; stroke-opacity: 0.8"/>
     <use xlink:href="#m8cdff401a6" x="154.329016" y="93.140352" style="fill: #006400; fill-opacity: 0.8; stroke: #006400; stroke-opacity: 0.8"/>
     <use xlink:href="#m8cdff401a6" x="153.037018" y="96.081302" style="fill: #006400; fill-opacity: 0.8; stroke: #006400; stroke-opacity: 0.8"/>
     <use xlink:href="#m8cdff401a6" x="195.328134" y="16.675657" style="fill: #006400; fill-opacity: 0.8; stroke: #006400; stroke-opacity: 0.8"/>
     <use xlink:href="#m8cdff401a6" x="134.761497" y="143.136499" style="fill: #006400; fill-opacity: 0.8; stroke: #006400; stroke-opacity: 0.8"/>
     <use xlink:href="#m8cdff401a6" x="171.958988" y="16.675657" style="fill: #006400; fill-opacity: 0.8; stroke: #006400; stroke-opacity: 0.8"/>
     <use xlink:href="#m8cdff401a6" x="182.341869" y="16.675657" style="fill: #006400; fill-opacity: 0.8; stroke: #006400; stroke-opacity: 0.8"/>
     <use xlink:href="#m8cdff401a6" x="188.826359" y="16.675657" style="fill: #006400; fill-opacity: 0.8; stroke: #006400; stroke-opacity: 0.8"/>
     <use xlink:href="#m8cdff401a6" x="156.944099" y="16.675657" style="fill: #006400; fill-opacity: 0.8; stroke: #006400; stroke-opacity: 0.8"/>
     <use xlink:href="#m8cdff401a6" x="169.858859" y="16.675657" style="fill: #006400; fill-opacity: 0.8; stroke: #006400; stroke-opacity: 0.8"/>
     <use xlink:href="#m8cdff401a6" x="134.311557" y="172.545997" style="fill: #006400; fill-opacity: 0.8; stroke: #006400; stroke-opacity: 0.8"/>
    </g>
   </g>
   <g id="matplotlib.axis_1">
    <g id="xtick_1">
     <g id="line2d_1">
      <defs>
       <path id="m6b84ecc825" d="M 0 0 
L 0 3.5 
" style="stroke: #000000; stroke-width: 0.8"/>
      </defs>
      <g>
       <use xlink:href="#m6b84ecc825" x="144.625275" y="239.15851" style="stroke: #000000; stroke-width: 0.8"/>
      </g>
     </g>
     <g id="text_1">
      <!-- $\mathdefault{10^{3}}$ -->
      <g transform="translate(128.785275 259.835697) scale(0.18 -0.18)">
       <defs>
        <path id="DejaVuSans-31" d="M 794 531 
L 1825 531 
L 1825 4091 
L 703 3866 
L 703 4441 
L 1819 4666 
L 2450 4666 
L 2450 531 
L 3481 531 
L 3481 0 
L 794 0 
L 794 531 
z
" transform="scale(0.015625)"/>
        <path id="DejaVuSans-30" d="M 2034 4250 
Q 1547 4250 1301 3770 
Q 1056 3291 1056 2328 
Q 1056 1369 1301 889 
Q 1547 409 2034 409 
Q 2525 409 2770 889 
Q 3016 1369 3016 2328 
Q 3016 3291 2770 3770 
Q 2525 4250 2034 4250 
z
M 2034 4750 
Q 2819 4750 3233 4129 
Q 3647 3509 3647 2328 
Q 3647 1150 3233 529 
Q 2819 -91 2034 -91 
Q 1250 -91 836 529 
Q 422 1150 422 2328 
Q 422 3509 836 4129 
Q 1250 4750 2034 4750 
z
" transform="scale(0.015625)"/>
        <path id="DejaVuSans-33" d="M 2597 2516 
Q 3050 2419 3304 2112 
Q 3559 1806 3559 1356 
Q 3559 666 3084 287 
Q 2609 -91 1734 -91 
Q 1441 -91 1130 -33 
Q 819 25 488 141 
L 488 750 
Q 750 597 1062 519 
Q 1375 441 1716 441 
Q 2309 441 2620 675 
Q 2931 909 2931 1356 
Q 2931 1769 2642 2001 
Q 2353 2234 1838 2234 
L 1294 2234 
L 1294 2753 
L 1863 2753 
Q 2328 2753 2575 2939 
Q 2822 3125 2822 3475 
Q 2822 3834 2567 4026 
Q 2313 4219 1838 4219 
Q 1578 4219 1281 4162 
Q 984 4106 628 3988 
L 628 4550 
Q 988 4650 1302 4700 
Q 1616 4750 1894 4750 
Q 2613 4750 3031 4423 
Q 3450 4097 3450 3541 
Q 3450 3153 3228 2886 
Q 3006 2619 2597 2516 
z
" transform="scale(0.015625)"/>
       </defs>
       <use xlink:href="#DejaVuSans-31" transform="translate(0 0.765625)"/>
       <use xlink:href="#DejaVuSans-30" transform="translate(63.623047 0.765625)"/>
       <use xlink:href="#DejaVuSans-33" transform="translate(128.203125 39.046875) scale(0.7)"/>
      </g>
     </g>
    </g>
    <g id="xtick_2">
     <g id="line2d_2">
      <g>
       <use xlink:href="#m6b84ecc825" x="268.104246" y="239.15851" style="stroke: #000000; stroke-width: 0.8"/>
      </g>
     </g>
     <g id="text_2">
      <!-- $\mathdefault{10^{4}}$ -->
      <g transform="translate(252.264246 259.835697) scale(0.18 -0.18)">
       <defs>
        <path id="DejaVuSans-34" d="M 2419 4116 
L 825 1625 
L 2419 1625 
L 2419 4116 
z
M 2253 4666 
L 3047 4666 
L 3047 1625 
L 3713 1625 
L 3713 1100 
L 3047 1100 
L 3047 0 
L 2419 0 
L 2419 1100 
L 313 1100 
L 313 1709 
L 2253 4666 
z
" transform="scale(0.015625)"/>
       </defs>
       <use xlink:href="#DejaVuSans-31" transform="translate(0 0.684375)"/>
       <use xlink:href="#DejaVuSans-30" transform="translate(63.623047 0.684375)"/>
       <use xlink:href="#DejaVuSans-34" transform="translate(128.203125 38.965625) scale(0.7)"/>
      </g>
     </g>
    </g>
    <g id="xtick_3">
     <g id="line2d_3">
      <defs>
       <path id="m9b42a260e6" d="M 0 0 
L 0 2 
" style="stroke: #000000; stroke-width: 0.6"/>
      </defs>
      <g>
       <use xlink:href="#m9b42a260e6" x="58.317178" y="239.15851" style="stroke: #000000; stroke-width: 0.6"/>
      </g>
     </g>
    </g>
    <g id="xtick_4">
     <g id="line2d_4">
      <g>
       <use xlink:href="#m9b42a260e6" x="80.060746" y="239.15851" style="stroke: #000000; stroke-width: 0.6"/>
      </g>
     </g>
    </g>
    <g id="xtick_5">
     <g id="line2d_5">
      <g>
       <use xlink:href="#m9b42a260e6" x="95.488052" y="239.15851" style="stroke: #000000; stroke-width: 0.6"/>
      </g>
     </g>
    </g>
    <g id="xtick_6">
     <g id="line2d_6">
      <g>
       <use xlink:href="#m9b42a260e6" x="107.454401" y="239.15851" style="stroke: #000000; stroke-width: 0.6"/>
      </g>
     </g>
    </g>
    <g id="xtick_7">
     <g id="line2d_7">
      <g>
       <use xlink:href="#m9b42a260e6" x="117.23162" y="239.15851" style="stroke: #000000; stroke-width: 0.6"/>
      </g>
     </g>
    </g>
    <g id="xtick_8">
     <g id="line2d_8">
      <g>
       <use xlink:href="#m9b42a260e6" x="125.49814" y="239.15851" style="stroke: #000000; stroke-width: 0.6"/>
      </g>
     </g>
    </g>
    <g id="xtick_9">
     <g id="line2d_9">
      <g>
       <use xlink:href="#m9b42a260e6" x="132.658926" y="239.15851" style="stroke: #000000; stroke-width: 0.6"/>
      </g>
     </g>
    </g>
    <g id="xtick_10">
     <g id="line2d_10">
      <g>
       <use xlink:href="#m9b42a260e6" x="138.975187" y="239.15851" style="stroke: #000000; stroke-width: 0.6"/>
      </g>
     </g>
    </g>
    <g id="xtick_11">
     <g id="line2d_11">
      <g>
       <use xlink:href="#m9b42a260e6" x="181.796149" y="239.15851" style="stroke: #000000; stroke-width: 0.6"/>
      </g>
     </g>
    </g>
    <g id="xtick_12">
     <g id="line2d_12">
      <g>
       <use xlink:href="#m9b42a260e6" x="203.539716" y="239.15851" style="stroke: #000000; stroke-width: 0.6"/>
      </g>
     </g>
    </g>
    <g id="xtick_13">
     <g id="line2d_13">
      <g>
       <use xlink:href="#m9b42a260e6" x="218.967023" y="239.15851" style="stroke: #000000; stroke-width: 0.6"/>
      </g>
     </g>
    </g>
    <g id="xtick_14">
     <g id="line2d_14">
      <g>
       <use xlink:href="#m9b42a260e6" x="230.933372" y="239.15851" style="stroke: #000000; stroke-width: 0.6"/>
      </g>
     </g>
    </g>
    <g id="xtick_15">
     <g id="line2d_15">
      <g>
       <use xlink:href="#m9b42a260e6" x="240.71059" y="239.15851" style="stroke: #000000; stroke-width: 0.6"/>
      </g>
     </g>
    </g>
    <g id="xtick_16">
     <g id="line2d_16">
      <g>
       <use xlink:href="#m9b42a260e6" x="248.977111" y="239.15851" style="stroke: #000000; stroke-width: 0.6"/>
      </g>
     </g>
    </g>
    <g id="xtick_17">
     <g id="line2d_17">
      <g>
       <use xlink:href="#m9b42a260e6" x="256.137897" y="239.15851" style="stroke: #000000; stroke-width: 0.6"/>
      </g>
     </g>
    </g>
    <g id="xtick_18">
     <g id="line2d_18">
      <g>
       <use xlink:href="#m9b42a260e6" x="262.454158" y="239.15851" style="stroke: #000000; stroke-width: 0.6"/>
      </g>
     </g>
    </g>
    <g id="xtick_19">
     <g id="line2d_19">
      <g>
       <use xlink:href="#m9b42a260e6" x="305.275119" y="239.15851" style="stroke: #000000; stroke-width: 0.6"/>
      </g>
     </g>
    </g>
    <g id="xtick_20">
     <g id="line2d_20">
      <g>
       <use xlink:href="#m9b42a260e6" x="327.018687" y="239.15851" style="stroke: #000000; stroke-width: 0.6"/>
      </g>
     </g>
    </g>
    <g id="xtick_21">
     <g id="line2d_21">
      <g>
       <use xlink:href="#m9b42a260e6" x="342.445993" y="239.15851" style="stroke: #000000; stroke-width: 0.6"/>
      </g>
     </g>
    </g>
    <g id="xtick_22">
     <g id="line2d_22">
      <g>
       <use xlink:href="#m9b42a260e6" x="354.412342" y="239.15851" style="stroke: #000000; stroke-width: 0.6"/>
      </g>
     </g>
    </g>
    <g id="text_3">
     <!-- mean fluorescence (a.u.) -->
     <g transform="translate(93.176875 281.256323) scale(0.18 -0.18)">
      <defs>
       <path id="DejaVuSans-6d" d="M 3328 2828 
Q 3544 3216 3844 3400 
Q 4144 3584 4550 3584 
Q 5097 3584 5394 3201 
Q 5691 2819 5691 2113 
L 5691 0 
L 5113 0 
L 5113 2094 
Q 5113 2597 4934 2840 
Q 4756 3084 4391 3084 
Q 3944 3084 3684 2787 
Q 3425 2491 3425 1978 
L 3425 0 
L 2847 0 
L 2847 2094 
Q 2847 2600 2669 2842 
Q 2491 3084 2119 3084 
Q 1678 3084 1418 2786 
Q 1159 2488 1159 1978 
L 1159 0 
L 581 0 
L 581 3500 
L 1159 3500 
L 1159 2956 
Q 1356 3278 1631 3431 
Q 1906 3584 2284 3584 
Q 2666 3584 2933 3390 
Q 3200 3197 3328 2828 
z
" transform="scale(0.015625)"/>
       <path id="DejaVuSans-65" d="M 3597 1894 
L 3597 1613 
L 953 1613 
Q 991 1019 1311 708 
Q 1631 397 2203 397 
Q 2534 397 2845 478 
Q 3156 559 3463 722 
L 3463 178 
Q 3153 47 2828 -22 
Q 2503 -91 2169 -91 
Q 1331 -91 842 396 
Q 353 884 353 1716 
Q 353 2575 817 3079 
Q 1281 3584 2069 3584 
Q 2775 3584 3186 3129 
Q 3597 2675 3597 1894 
z
M 3022 2063 
Q 3016 2534 2758 2815 
Q 2500 3097 2075 3097 
Q 1594 3097 1305 2825 
Q 1016 2553 972 2059 
L 3022 2063 
z
" transform="scale(0.015625)"/>
       <path id="DejaVuSans-61" d="M 2194 1759 
Q 1497 1759 1228 1600 
Q 959 1441 959 1056 
Q 959 750 1161 570 
Q 1363 391 1709 391 
Q 2188 391 2477 730 
Q 2766 1069 2766 1631 
L 2766 1759 
L 2194 1759 
z
M 3341 1997 
L 3341 0 
L 2766 0 
L 2766 531 
Q 2569 213 2275 61 
Q 1981 -91 1556 -91 
Q 1019 -91 701 211 
Q 384 513 384 1019 
Q 384 1609 779 1909 
Q 1175 2209 1959 2209 
L 2766 2209 
L 2766 2266 
Q 2766 2663 2505 2880 
Q 2244 3097 1772 3097 
Q 1472 3097 1187 3025 
Q 903 2953 641 2809 
L 641 3341 
Q 956 3463 1253 3523 
Q 1550 3584 1831 3584 
Q 2591 3584 2966 3190 
Q 3341 2797 3341 1997 
z
" transform="scale(0.015625)"/>
       <path id="DejaVuSans-6e" d="M 3513 2113 
L 3513 0 
L 2938 0 
L 2938 2094 
Q 2938 2591 2744 2837 
Q 2550 3084 2163 3084 
Q 1697 3084 1428 2787 
Q 1159 2491 1159 1978 
L 1159 0 
L 581 0 
L 581 3500 
L 1159 3500 
L 1159 2956 
Q 1366 3272 1645 3428 
Q 1925 3584 2291 3584 
Q 2894 3584 3203 3211 
Q 3513 2838 3513 2113 
z
" transform="scale(0.015625)"/>
       <path id="DejaVuSans-20" transform="scale(0.015625)"/>
       <path id="DejaVuSans-66" d="M 2375 4863 
L 2375 4384 
L 1825 4384 
Q 1516 4384 1395 4259 
Q 1275 4134 1275 3809 
L 1275 3500 
L 2222 3500 
L 2222 3053 
L 1275 3053 
L 1275 0 
L 697 0 
L 697 3053 
L 147 3053 
L 147 3500 
L 697 3500 
L 697 3744 
Q 697 4328 969 4595 
Q 1241 4863 1831 4863 
L 2375 4863 
z
" transform="scale(0.015625)"/>
       <path id="DejaVuSans-6c" d="M 603 4863 
L 1178 4863 
L 1178 0 
L 603 0 
L 603 4863 
z
" transform="scale(0.015625)"/>
       <path id="DejaVuSans-75" d="M 544 1381 
L 544 3500 
L 1119 3500 
L 1119 1403 
Q 1119 906 1312 657 
Q 1506 409 1894 409 
Q 2359 409 2629 706 
Q 2900 1003 2900 1516 
L 2900 3500 
L 3475 3500 
L 3475 0 
L 2900 0 
L 2900 538 
Q 2691 219 2414 64 
Q 2138 -91 1772 -91 
Q 1169 -91 856 284 
Q 544 659 544 1381 
z
M 1991 3584 
L 1991 3584 
z
" transform="scale(0.015625)"/>
       <path id="DejaVuSans-6f" d="M 1959 3097 
Q 1497 3097 1228 2736 
Q 959 2375 959 1747 
Q 959 1119 1226 758 
Q 1494 397 1959 397 
Q 2419 397 2687 759 
Q 2956 1122 2956 1747 
Q 2956 2369 2687 2733 
Q 2419 3097 1959 3097 
z
M 1959 3584 
Q 2709 3584 3137 3096 
Q 3566 2609 3566 1747 
Q 3566 888 3137 398 
Q 2709 -91 1959 -91 
Q 1206 -91 779 398 
Q 353 888 353 1747 
Q 353 2609 779 3096 
Q 1206 3584 1959 3584 
z
" transform="scale(0.015625)"/>
       <path id="DejaVuSans-72" d="M 2631 2963 
Q 2534 3019 2420 3045 
Q 2306 3072 2169 3072 
Q 1681 3072 1420 2755 
Q 1159 2438 1159 1844 
L 1159 0 
L 581 0 
L 581 3500 
L 1159 3500 
L 1159 2956 
Q 1341 3275 1631 3429 
Q 1922 3584 2338 3584 
Q 2397 3584 2469 3576 
Q 2541 3569 2628 3553 
L 2631 2963 
z
" transform="scale(0.015625)"/>
       <path id="DejaVuSans-73" d="M 2834 3397 
L 2834 2853 
Q 2591 2978 2328 3040 
Q 2066 3103 1784 3103 
Q 1356 3103 1142 2972 
Q 928 2841 928 2578 
Q 928 2378 1081 2264 
Q 1234 2150 1697 2047 
L 1894 2003 
Q 2506 1872 2764 1633 
Q 3022 1394 3022 966 
Q 3022 478 2636 193 
Q 2250 -91 1575 -91 
Q 1294 -91 989 -36 
Q 684 19 347 128 
L 347 722 
Q 666 556 975 473 
Q 1284 391 1588 391 
Q 1994 391 2212 530 
Q 2431 669 2431 922 
Q 2431 1156 2273 1281 
Q 2116 1406 1581 1522 
L 1381 1569 
Q 847 1681 609 1914 
Q 372 2147 372 2553 
Q 372 3047 722 3315 
Q 1072 3584 1716 3584 
Q 2034 3584 2315 3537 
Q 2597 3491 2834 3397 
z
" transform="scale(0.015625)"/>
       <path id="DejaVuSans-63" d="M 3122 3366 
L 3122 2828 
Q 2878 2963 2633 3030 
Q 2388 3097 2138 3097 
Q 1578 3097 1268 2742 
Q 959 2388 959 1747 
Q 959 1106 1268 751 
Q 1578 397 2138 397 
Q 2388 397 2633 464 
Q 2878 531 3122 666 
L 3122 134 
Q 2881 22 2623 -34 
Q 2366 -91 2075 -91 
Q 1284 -91 818 406 
Q 353 903 353 1747 
Q 353 2603 823 3093 
Q 1294 3584 2113 3584 
Q 2378 3584 2631 3529 
Q 2884 3475 3122 3366 
z
" transform="scale(0.015625)"/>
       <path id="DejaVuSans-28" d="M 1984 4856 
Q 1566 4138 1362 3434 
Q 1159 2731 1159 2009 
Q 1159 1288 1364 580 
Q 1569 -128 1984 -844 
L 1484 -844 
Q 1016 -109 783 600 
Q 550 1309 550 2009 
Q 550 2706 781 3412 
Q 1013 4119 1484 4856 
L 1984 4856 
z
" transform="scale(0.015625)"/>
       <path id="DejaVuSans-2e" d="M 684 794 
L 1344 794 
L 1344 0 
L 684 0 
L 684 794 
z
" transform="scale(0.015625)"/>
       <path id="DejaVuSans-29" d="M 513 4856 
L 1013 4856 
Q 1481 4119 1714 3412 
Q 1947 2706 1947 2009 
Q 1947 1309 1714 600 
Q 1481 -109 1013 -844 
L 513 -844 
Q 928 -128 1133 580 
Q 1338 1288 1338 2009 
Q 1338 2731 1133 3434 
Q 928 4138 513 4856 
z
" transform="scale(0.015625)"/>
      </defs>
      <use xlink:href="#DejaVuSans-6d"/>
      <use xlink:href="#DejaVuSans-65" x="97.412109"/>
      <use xlink:href="#DejaVuSans-61" x="158.935547"/>
      <use xlink:href="#DejaVuSans-6e" x="220.214844"/>
      <use xlink:href="#DejaVuSans-20" x="283.59375"/>
      <use xlink:href="#DejaVuSans-66" x="315.380859"/>
      <use xlink:href="#DejaVuSans-6c" x="350.585938"/>
      <use xlink:href="#DejaVuSans-75" x="378.369141"/>
      <use xlink:href="#DejaVuSans-6f" x="441.748047"/>
      <use xlink:href="#DejaVuSans-72" x="502.929688"/>
      <use xlink:href="#DejaVuSans-65" x="541.792969"/>
      <use xlink:href="#DejaVuSans-73" x="603.316406"/>
      <use xlink:href="#DejaVuSans-63" x="655.416016"/>
      <use xlink:href="#DejaVuSans-65" x="710.396484"/>
      <use xlink:href="#DejaVuSans-6e" x="771.919922"/>
      <use xlink:href="#DejaVuSans-63" x="835.298828"/>
      <use xlink:href="#DejaVuSans-65" x="890.279297"/>
      <use xlink:href="#DejaVuSans-20" x="951.802734"/>
      <use xlink:href="#DejaVuSans-28" x="983.589844"/>
      <use xlink:href="#DejaVuSans-61" x="1022.603516"/>
      <use xlink:href="#DejaVuSans-2e" x="1083.882812"/>
      <use xlink:href="#DejaVuSans-75" x="1115.669922"/>
      <use xlink:href="#DejaVuSans-2e" x="1179.048828"/>
      <use xlink:href="#DejaVuSans-29" x="1210.835938"/>
     </g>
    </g>
   </g>
   <g id="matplotlib.axis_2">
    <g id="ytick_1">
     <g id="line2d_23">
      <defs>
       <path id="m6f369175a0" d="M 0 0 
L -3.5 0 
" style="stroke: #000000; stroke-width: 0.8"/>
      </defs>
      <g>
       <use xlink:href="#m6f369175a0" x="54.325865" y="231.364993" style="stroke: #000000; stroke-width: 0.8"/>
      </g>
     </g>
     <g id="text_4">
      <!-- 0 -->
      <g transform="translate(35.873365 238.203587) scale(0.18 -0.18)">
       <use xlink:href="#DejaVuSans-30"/>
      </g>
     </g>
    </g>
    <g id="ytick_2">
     <g id="line2d_24">
      <g>
       <use xlink:href="#m6f369175a0" x="54.325865" y="172.545997" style="stroke: #000000; stroke-width: 0.8"/>
      </g>
     </g>
     <g id="text_5">
      <!-- 20 -->
      <g transform="translate(24.420865 179.38459) scale(0.18 -0.18)">
       <defs>
        <path id="DejaVuSans-32" d="M 1228 531 
L 3431 531 
L 3431 0 
L 469 0 
L 469 531 
Q 828 903 1448 1529 
Q 2069 2156 2228 2338 
Q 2531 2678 2651 2914 
Q 2772 3150 2772 3378 
Q 2772 3750 2511 3984 
Q 2250 4219 1831 4219 
Q 1534 4219 1204 4116 
Q 875 4013 500 3803 
L 500 4441 
Q 881 4594 1212 4672 
Q 1544 4750 1819 4750 
Q 2544 4750 2975 4387 
Q 3406 4025 3406 3419 
Q 3406 3131 3298 2873 
Q 3191 2616 2906 2266 
Q 2828 2175 2409 1742 
Q 1991 1309 1228 531 
z
" transform="scale(0.015625)"/>
       </defs>
       <use xlink:href="#DejaVuSans-32"/>
       <use xlink:href="#DejaVuSans-30" x="63.623047"/>
      </g>
     </g>
    </g>
    <g id="ytick_3">
     <g id="line2d_25">
      <g>
       <use xlink:href="#m6f369175a0" x="54.325865" y="113.727" style="stroke: #000000; stroke-width: 0.8"/>
      </g>
     </g>
     <g id="text_6">
      <!-- 40 -->
      <g transform="translate(24.420865 120.565594) scale(0.18 -0.18)">
       <use xlink:href="#DejaVuSans-34"/>
       <use xlink:href="#DejaVuSans-30" x="63.623047"/>
      </g>
     </g>
    </g>
    <g id="ytick_4">
     <g id="line2d_26">
      <g>
       <use xlink:href="#m6f369175a0" x="54.325865" y="54.908004" style="stroke: #000000; stroke-width: 0.8"/>
      </g>
     </g>
     <g id="text_7">
      <!-- 60 -->
      <g transform="translate(24.420865 61.746598) scale(0.18 -0.18)">
       <defs>
        <path id="DejaVuSans-36" d="M 2113 2584 
Q 1688 2584 1439 2293 
Q 1191 2003 1191 1497 
Q 1191 994 1439 701 
Q 1688 409 2113 409 
Q 2538 409 2786 701 
Q 3034 994 3034 1497 
Q 3034 2003 2786 2293 
Q 2538 2584 2113 2584 
z
M 3366 4563 
L 3366 3988 
Q 3128 4100 2886 4159 
Q 2644 4219 2406 4219 
Q 1781 4219 1451 3797 
Q 1122 3375 1075 2522 
Q 1259 2794 1537 2939 
Q 1816 3084 2150 3084 
Q 2853 3084 3261 2657 
Q 3669 2231 3669 1497 
Q 3669 778 3244 343 
Q 2819 -91 2113 -91 
Q 1303 -91 875 529 
Q 447 1150 447 2328 
Q 447 3434 972 4092 
Q 1497 4750 2381 4750 
Q 2619 4750 2861 4703 
Q 3103 4656 3366 4563 
z
" transform="scale(0.015625)"/>
       </defs>
       <use xlink:href="#DejaVuSans-36"/>
       <use xlink:href="#DejaVuSans-30" x="63.623047"/>
      </g>
     </g>
    </g>
    <g id="text_8">
     <!-- lifespan (h) -->
     <g transform="translate(16.677427 171.994062) rotate(-90) scale(0.18 -0.18)">
      <defs>
       <path id="DejaVuSans-69" d="M 603 3500 
L 1178 3500 
L 1178 0 
L 603 0 
L 603 3500 
z
M 603 4863 
L 1178 4863 
L 1178 4134 
L 603 4134 
L 603 4863 
z
" transform="scale(0.015625)"/>
       <path id="DejaVuSans-70" d="M 1159 525 
L 1159 -1331 
L 581 -1331 
L 581 3500 
L 1159 3500 
L 1159 2969 
Q 1341 3281 1617 3432 
Q 1894 3584 2278 3584 
Q 2916 3584 3314 3078 
Q 3713 2572 3713 1747 
Q 3713 922 3314 415 
Q 2916 -91 2278 -91 
Q 1894 -91 1617 61 
Q 1341 213 1159 525 
z
M 3116 1747 
Q 3116 2381 2855 2742 
Q 2594 3103 2138 3103 
Q 1681 3103 1420 2742 
Q 1159 2381 1159 1747 
Q 1159 1113 1420 752 
Q 1681 391 2138 391 
Q 2594 391 2855 752 
Q 3116 1113 3116 1747 
z
" transform="scale(0.015625)"/>
       <path id="DejaVuSans-68" d="M 3513 2113 
L 3513 0 
L 2938 0 
L 2938 2094 
Q 2938 2591 2744 2837 
Q 2550 3084 2163 3084 
Q 1697 3084 1428 2787 
Q 1159 2491 1159 1978 
L 1159 0 
L 581 0 
L 581 4863 
L 1159 4863 
L 1159 2956 
Q 1366 3272 1645 3428 
Q 1925 3584 2291 3584 
Q 2894 3584 3203 3211 
Q 3513 2838 3513 2113 
z
" transform="scale(0.015625)"/>
      </defs>
      <use xlink:href="#DejaVuSans-6c"/>
      <use xlink:href="#DejaVuSans-69" x="27.783203"/>
      <use xlink:href="#DejaVuSans-66" x="55.566406"/>
      <use xlink:href="#DejaVuSans-65" x="90.771484"/>
      <use xlink:href="#DejaVuSans-73" x="152.294922"/>
      <use xlink:href="#DejaVuSans-70" x="204.394531"/>
      <use xlink:href="#DejaVuSans-61" x="267.871094"/>
      <use xlink:href="#DejaVuSans-6e" x="329.150391"/>
      <use xlink:href="#DejaVuSans-20" x="392.529297"/>
      <use xlink:href="#DejaVuSans-28" x="424.316406"/>
      <use xlink:href="#DejaVuSans-68" x="463.330078"/>
      <use xlink:href="#DejaVuSans-29" x="526.708984"/>
     </g>
    </g>
   </g>
   <g id="patch_3">
    <path d="M 54.325865 239.15851 
L 54.325865 3.00024 
" style="fill: none; stroke: #000000; stroke-width: 0.8; stroke-linejoin: miter; stroke-linecap: square"/>
   </g>
   <g id="patch_4">
    <path d="M 356.99976 239.15851 
L 356.99976 3.00024 
" style="fill: none; stroke: #000000; stroke-width: 0.8; stroke-linejoin: miter; stroke-linecap: square"/>
   </g>
   <g id="patch_5">
    <path d="M 54.325865 239.15851 
L 356.99976 239.15851 
" style="fill: none; stroke: #000000; stroke-width: 0.8; stroke-linejoin: miter; stroke-linecap: square"/>
   </g>
   <g id="patch_6">
    <path d="M 54.325865 3.00024 
L 356.99976 3.00024 
" style="fill: none; stroke: #000000; stroke-width: 0.8; stroke-linejoin: miter; stroke-linecap: square"/>
   </g>
  </g>
 </g>
 <defs>
  <clipPath id="p1e2d0a3418">
   <rect x="54.325865" y="3.00024" width="302.673895" height="236.15827"/>
  </clipPath>
 </defs>
</svg>
